<mxfile host="app.diagrams.net" modified="2020-06-04T08:08:44.374Z" agent="5.0 (Windows NT 10.0; Win64; x64) AppleWebKit/537.36 (KHTML, like Gecko) Chrome/83.0.4103.61 Safari/537.36" etag="gyhoJ6Bow-ptUluYLO5d" version="13.0.9" type="github">
  <diagram id="C5RBs43oDa-KdzZeNtuy" name="Page-1">
    <mxGraphModel dx="1422" dy="794" grid="1" gridSize="10" guides="1" tooltips="1" connect="1" arrows="1" fold="1" page="1" pageScale="1" pageWidth="827" pageHeight="1169" math="0" shadow="0">
      <root>
        <mxCell id="WIyWlLk6GJQsqaUBKTNV-0" />
        <mxCell id="WIyWlLk6GJQsqaUBKTNV-1" parent="WIyWlLk6GJQsqaUBKTNV-0" />
        <mxCell id="BQ5K8KIelSez1FVN6mCY-18" value="编译打包" style="edgeStyle=orthogonalEdgeStyle;rounded=0;orthogonalLoop=1;jettySize=auto;html=1;exitX=0.5;exitY=1;exitDx=0;exitDy=0;entryX=0.5;entryY=0;entryDx=0;entryDy=0;endArrow=block;endFill=0;fontSize=12;" edge="1" parent="WIyWlLk6GJQsqaUBKTNV-1" source="WIyWlLk6GJQsqaUBKTNV-3" target="WIyWlLk6GJQsqaUBKTNV-11">
          <mxGeometry y="30" relative="1" as="geometry">
            <Array as="points">
              <mxPoint x="420" y="310" />
              <mxPoint x="420" y="310" />
            </Array>
            <mxPoint as="offset" />
          </mxGeometry>
        </mxCell>
        <mxCell id="WIyWlLk6GJQsqaUBKTNV-3" value="&amp;nbsp; App工程" style="rounded=1;whiteSpace=wrap;html=1;fontSize=12;glass=0;strokeWidth=1;shadow=0;align=left;verticalAlign=top;" parent="WIyWlLk6GJQsqaUBKTNV-1" vertex="1">
          <mxGeometry x="200" y="200" width="440" height="80" as="geometry" />
        </mxCell>
        <mxCell id="WIyWlLk6GJQsqaUBKTNV-11" value="&amp;nbsp; App" style="rounded=1;whiteSpace=wrap;html=1;fontSize=12;glass=0;strokeWidth=1;shadow=0;align=left;verticalAlign=top;" parent="WIyWlLk6GJQsqaUBKTNV-1" vertex="1">
          <mxGeometry x="200" y="340" width="440" height="80" as="geometry" />
        </mxCell>
        <mxCell id="BQ5K8KIelSez1FVN6mCY-11" style="edgeStyle=orthogonalEdgeStyle;rounded=0;orthogonalLoop=1;jettySize=auto;html=1;exitX=0.5;exitY=1;exitDx=0;exitDy=0;endArrow=block;endFill=0;fontSize=15;" edge="1" parent="WIyWlLk6GJQsqaUBKTNV-1" source="BQ5K8KIelSez1FVN6mCY-0" target="BQ5K8KIelSez1FVN6mCY-9">
          <mxGeometry relative="1" as="geometry">
            <Array as="points">
              <mxPoint x="595" y="120" />
            </Array>
          </mxGeometry>
        </mxCell>
        <mxCell id="BQ5K8KIelSez1FVN6mCY-12" value="下载" style="edgeLabel;html=1;align=center;verticalAlign=middle;resizable=0;points=[];fontSize=12;" vertex="1" connectable="0" parent="BQ5K8KIelSez1FVN6mCY-11">
          <mxGeometry x="-0.113" y="2" relative="1" as="geometry">
            <mxPoint x="13" as="offset" />
          </mxGeometry>
        </mxCell>
        <mxCell id="BQ5K8KIelSez1FVN6mCY-0" value="XX SDK 官网" style="rounded=1;whiteSpace=wrap;html=1;fontSize=12;glass=0;strokeWidth=1;shadow=0;" vertex="1" parent="WIyWlLk6GJQsqaUBKTNV-1">
          <mxGeometry x="520" y="80" width="120" height="40" as="geometry" />
        </mxCell>
        <mxCell id="BQ5K8KIelSez1FVN6mCY-3" value="&lt;font style=&quot;font-size: 15px&quot;&gt;&lt;b&gt;IDE开发阶段&lt;/b&gt;&lt;/font&gt;" style="text;html=1;strokeColor=none;fillColor=none;align=center;verticalAlign=middle;whiteSpace=wrap;rounded=0;fontSize=15;" vertex="1" parent="WIyWlLk6GJQsqaUBKTNV-1">
          <mxGeometry x="70" y="215" width="90" height="40" as="geometry" />
        </mxCell>
        <mxCell id="BQ5K8KIelSez1FVN6mCY-5" value="App业务代码" style="rounded=1;whiteSpace=wrap;html=1;align=center;" vertex="1" parent="WIyWlLk6GJQsqaUBKTNV-1">
          <mxGeometry x="210" y="228" width="160" height="40" as="geometry" />
        </mxCell>
        <mxCell id="BQ5K8KIelSez1FVN6mCY-8" value="SDK依赖配置文件" style="rounded=1;whiteSpace=wrap;html=1;align=left;" vertex="1" parent="WIyWlLk6GJQsqaUBKTNV-1">
          <mxGeometry x="440" y="228" width="100" height="40" as="geometry" />
        </mxCell>
        <mxCell id="BQ5K8KIelSez1FVN6mCY-9" value="SDK包" style="rounded=1;whiteSpace=wrap;html=1;align=center;" vertex="1" parent="WIyWlLk6GJQsqaUBKTNV-1">
          <mxGeometry x="560" y="228" width="70" height="40" as="geometry" />
        </mxCell>
        <mxCell id="BQ5K8KIelSez1FVN6mCY-10" value="&lt;font style=&quot;font-size: 21px&quot;&gt;......&lt;/font&gt;" style="rounded=1;whiteSpace=wrap;html=1;align=center;fillColor=none;gradientColor=none;strokeColor=none;" vertex="1" parent="WIyWlLk6GJQsqaUBKTNV-1">
          <mxGeometry x="380" y="228" width="50" height="40" as="geometry" />
        </mxCell>
        <mxCell id="BQ5K8KIelSez1FVN6mCY-13" value="App业务代码" style="rounded=1;whiteSpace=wrap;html=1;align=center;" vertex="1" parent="WIyWlLk6GJQsqaUBKTNV-1">
          <mxGeometry x="210" y="370" width="160" height="40" as="geometry" />
        </mxCell>
        <mxCell id="BQ5K8KIelSez1FVN6mCY-14" value="SDK依赖配置文件" style="rounded=1;whiteSpace=wrap;html=1;align=left;" vertex="1" parent="WIyWlLk6GJQsqaUBKTNV-1">
          <mxGeometry x="450" y="370" width="100" height="40" as="geometry" />
        </mxCell>
        <mxCell id="BQ5K8KIelSez1FVN6mCY-15" value="&lt;font style=&quot;font-size: 21px&quot;&gt;......&lt;/font&gt;" style="rounded=1;whiteSpace=wrap;html=1;align=center;fillColor=none;gradientColor=none;strokeColor=none;" vertex="1" parent="WIyWlLk6GJQsqaUBKTNV-1">
          <mxGeometry x="388.5" y="370" width="50" height="40" as="geometry" />
        </mxCell>
        <mxCell id="BQ5K8KIelSez1FVN6mCY-16" value="SDK包" style="rounded=1;whiteSpace=wrap;html=1;align=center;" vertex="1" parent="WIyWlLk6GJQsqaUBKTNV-1">
          <mxGeometry x="560" y="370" width="70" height="40" as="geometry" />
        </mxCell>
      </root>
    </mxGraphModel>
  </diagram>
</mxfile>
